<?xml version="1.0" encoding="utf-8"?>
<!-- Generator: Adobe Illustrator 16.0.0, SVG Export Plug-In . SVG Version: 6.00 Build 0)  -->
<!DOCTYPE svg PUBLIC "-//W3C//DTD SVG 1.1//EN" "http://www.w3.org/Graphics/SVG/1.1/DTD/svg11.dtd">
<svg version="1.1" id="Layer_1" xmlns="http://www.w3.org/2000/svg" xmlns:xlink="http://www.w3.org/1999/xlink" x="0px" y="0px"
	 width="193.882px" height="192.592px" viewBox="0 0 193.882 192.592" enable-background="new 0 0 193.882 192.592"
	 xml:space="preserve">
<path fill="#FFFFFF" d="M193.851,93.309l-15.809-8.362c-0.693-5.001-1.835-9.857-3.389-14.527l11.512-12.73
	c-4.152-9.747-9.856-18.672-16.8-26.472l-18.027,3.872c-2.666-2.37-5.484-4.572-8.445-6.583l0.663-17.874
	C134.139,5.458,123.77,1.806,112.777,0l-11.302,14.53c-1.501-0.081-3.013-0.125-4.534-0.125c-1.522,0-3.033,0.044-4.534,0.125
	L81.104,0C70.111,1.806,59.742,5.458,50.325,10.632l0.662,17.874c-2.96,2.011-5.779,4.213-8.444,6.583l-18.028-3.872
	c-6.943,7.799-12.648,16.725-16.8,26.472L19.227,70.42c-1.553,4.669-2.696,9.525-3.389,14.526L0.029,93.309
	C0.011,94.085,0,94.864,0,95.645c0,9.311,1.315,18.313,3.766,26.834l16.367,2.268c2.313,6.24,5.365,12.122,9.049,17.539
	l-6.412,15.771c5.954,7.066,12.897,13.271,20.621,18.398l13.713-8.607c6.611,3.688,13.783,6.49,21.359,8.239l5.02,15.562
	c4.399,0.609,8.89,0.936,13.458,0.936c4.567,0,9.059-0.324,13.457-0.936l5.021-15.562c7.577-1.749,14.749-4.552,21.36-8.239
	l13.713,8.607c7.723-5.127,14.667-11.332,20.62-18.398l-6.411-15.771c3.684-5.417,6.735-11.299,9.047-17.539l16.368-2.268
	c2.451-8.521,3.766-17.523,3.766-26.834C193.88,94.864,193.87,94.085,193.851,93.309z M151.248,127.646L96.943,159l-54.309-31.354
	V64.938l54.309-31.353l54.305,31.353V127.646z"/>
<polygon fill="#488DBE" points="127.083,64.035 86.577,87.421 96.904,93.384 137.41,69.998 "/>
<polygon fill="#488DBE" points="111.995,55.324 71.488,78.71 81.817,84.674 122.323,61.287 "/>
<polygon fill="#488DBE" points="96.905,46.613 56.399,69.999 66.729,75.962 107.234,52.577 "/>
<polygon fill="#488DBE" points="109.649,138.335 109.649,91.563 99.32,97.526 99.32,144.3 "/>
<polygon fill="#488DBE" points="94.561,144.298 94.561,97.526 84.233,91.565 84.233,138.335 "/>
<polygon fill="#488DBE" points="124.738,129.623 124.738,82.852 114.409,88.815 114.409,135.587 "/>
<polygon fill="#488DBE" points="139.825,120.913 139.825,74.141 129.497,80.104 129.497,126.875 "/>
<polygon fill="#488DBE" points="79.473,135.589 79.473,88.817 69.145,82.852 69.145,129.624 "/>
<polygon fill="#488DBE" points="64.384,126.876 64.384,80.104 54.055,74.141 54.055,120.913 "/>
</svg>